<svg xmlns="http://www.w3.org/2000/svg" viewBox="0 0 600 300" style="background-color: black;">
    <!-- Wave 1 (Top) -->
    <path
        d="M0,30 Q37.5,15 75,30 Q112.5,45 150,30 Q187.5,15 225,30 Q262.5,45 300,30 Q337.5,15 375,30 Q412.5,45 450,30 Q487.5,15 525,30 Q562.5,45 600,30"
        fill="none"
        stroke="white"
        stroke-width="1">
        <animate attributeName="d"
            dur="20s"
            repeatCount="indefinite"
            values="M0,30 Q37.5,15 75,30 Q112.5,45 150,30 Q187.5,15 225,30 Q262.5,45 300,30 Q337.5,15 375,30 Q412.5,45 450,30 Q487.5,15 525,30 Q562.5,45 600,30;
                    M0,30 Q37.5,45 75,30 Q112.5,15 150,30 Q187.5,45 225,30 Q262.5,15 300,30 Q337.5,45 375,30 Q412.5,15 450,30 Q487.5,45 525,30 Q562.5,15 600,30;
                    M0,30 Q37.5,15 75,30 Q112.5,45 150,30 Q187.5,15 225,30 Q262.5,45 300,30 Q337.5,15 375,30 Q412.5,45 450,30 Q487.5,15 525,30 Q562.5,45 600,30" />
    </path>

    <!-- Wave 2 -->
    <path
        d="M0,60 Q50,40 100,60 Q150,80 200,60 Q250,40 300,60 Q350,80 400,60 Q450,40 500,60 Q550,80 600,60"
        fill="none"
        stroke="white"
        stroke-width="1.1">
        <animate attributeName="d"
            dur="22s"
            repeatCount="indefinite"
            values="M0,60 Q50,40 100,60 Q150,80 200,60 Q250,40 300,60 Q350,80 400,60 Q450,40 500,60 Q550,80 600,60;
                    M0,60 Q50,80 100,60 Q150,40 200,60 Q250,80 300,60 Q350,40 400,60 Q450,80 500,60 Q550,40 600,60;
                    M0,60 Q50,40 100,60 Q150,80 200,60 Q250,40 300,60 Q350,80 400,60 Q450,40 500,60 Q550,80 600,60" />
    </path>

    <!-- Wave 3 -->
    <path
        d="M0,90 Q40,70 80,90 Q120,110 160,90 Q200,70 240,90 Q280,110 320,90 Q360,70 400,90 Q440,110 480,90 Q520,70 560,90 Q600,110 600,90"
        fill="none"
        stroke="white"
        stroke-width="1.2">
        <animate attributeName="d"
            dur="19s"
            repeatCount="indefinite"
            values="M0,90 Q40,70 80,90 Q120,110 160,90 Q200,70 240,90 Q280,110 320,90 Q360,70 400,90 Q440,110 480,90 Q520,70 560,90 Q600,110 600,90;
                    M0,90 Q40,110 80,90 Q120,70 160,90 Q200,110 240,90 Q280,70 320,90 Q360,110 400,90 Q440,70 480,90 Q520,110 560,90 Q600,70 600,90;
                    M0,90 Q40,70 80,90 Q120,110 160,90 Q200,70 240,90 Q280,110 320,90 Q360,70 400,90 Q440,110 480,90 Q520,70 560,90 Q600,110 600,90" />
    </path>

    <!-- Wave 4 -->
    <path
        d="M0,120 Q60,100 120,120 Q180,140 240,120 Q300,100 360,120 Q420,140 480,120 Q540,100 600,120"
        fill="none"
        stroke="white"
        stroke-width="1.3">
        <animate attributeName="d"
            dur="24s"
            repeatCount="indefinite"
            values="M0,120 Q60,100 120,120 Q180,140 240,120 Q300,100 360,120 Q420,140 480,120 Q540,100 600,120;
                    M0,120 Q60,140 120,120 Q180,100 240,120 Q300,140 360,120 Q420,100 480,120 Q540,140 600,120;
                    M0,120 Q60,100 120,120 Q180,140 240,120 Q300,100 360,120 Q420,140 480,120 Q540,100 600,120" />
    </path>

    <!-- Wave 5 -->
    <path
        d="M0,150 Q43,130 86,150 Q129,170 172,150 Q215,130 258,150 Q301,170 344,150 Q387,130 430,150 Q473,170 516,150 Q559,130 600,150"
        fill="none"
        stroke="white"
        stroke-width="1.4">
        <animate attributeName="d"
            dur="26s"
            repeatCount="indefinite"
            values="M0,150 Q43,130 86,150 Q129,170 172,150 Q215,130 258,150 Q301,170 344,150 Q387,130 430,150 Q473,170 516,150 Q559,130 600,150;
                    M0,150 Q43,170 86,150 Q129,130 172,150 Q215,170 258,150 Q301,130 344,150 Q387,170 430,150 Q473,130 516,150 Q559,170 600,150;
                    M0,150 Q43,130 86,150 Q129,170 172,150 Q215,130 258,150 Q301,170 344,150 Q387,130 430,150 Q473,170 516,150 Q559,130 600,150" />
    </path>

    <!-- Wave 6 -->
    <path
        d="M0,180 Q50,160 100,180 Q150,200 200,180 Q250,160 300,180 Q350,200 400,180 Q450,160 500,180 Q550,200 600,180"
        fill="none"
        stroke="white"
        stroke-width="1.5">
        <animate attributeName="d"
            dur="21s"
            repeatCount="indefinite"
            values="M0,180 Q50,160 100,180 Q150,200 200,180 Q250,160 300,180 Q350,200 400,180 Q450,160 500,180 Q550,200 600,180;
                    M0,180 Q50,200 100,180 Q150,160 200,180 Q250,200 300,180 Q350,160 400,180 Q450,200 500,180 Q550,160 600,180;
                    M0,180 Q50,160 100,180 Q150,200 200,180 Q250,160 300,180 Q350,200 400,180 Q450,160 500,180 Q550,200 600,180" />
    </path>

    <!-- Wave 7 -->
    <path
        d="M0,210 Q37.5,190 75,210 Q112.5,230 150,210 Q187.5,190 225,210 Q262.5,230 300,210 Q337.5,190 375,210 Q412.5,230 450,210 Q487.5,190 525,210 Q562.5,230 600,210"
        fill="none"
        stroke="white"
        stroke-width="1.6">
        <animate attributeName="d"
            dur="18s"
            repeatCount="indefinite"
            values="M0,210 Q37.5,190 75,210 Q112.5,230 150,210 Q187.5,190 225,210 Q262.5,230 300,210 Q337.5,190 375,210 Q412.5,230 450,210 Q487.5,190 525,210 Q562.5,230 600,210;
                    M0,210 Q37.5,230 75,210 Q112.5,190 150,210 Q187.5,230 225,210 Q262.5,190 300,210 Q337.5,230 375,210 Q412.5,190 450,210 Q487.5,230 525,210 Q562.5,190 600,210;
                    M0,210 Q37.5,190 75,210 Q112.5,230 150,210 Q187.5,190 225,210 Q262.5,230 300,210 Q337.5,190 375,210 Q412.5,230 450,210 Q487.5,190 525,210 Q562.5,230 600,210" />
    </path>

    <!-- Wave 8 -->
    <path
        d="M0,240 Q60,220 120,240 Q180,260 240,240 Q300,220 360,240 Q420,260 480,240 Q540,220 600,240"
        fill="none"
        stroke="white"
        stroke-width="1.7">
        <animate attributeName="d"
            dur="23s"
            repeatCount="indefinite"
            values="M0,240 Q60,220 120,240 Q180,260 240,240 Q300,220 360,240 Q420,260 480,240 Q540,220 600,240;
                    M0,240 Q60,260 120,240 Q180,220 240,240 Q300,260 360,240 Q420,220 480,240 Q540,260 600,240;
                    M0,240 Q60,220 120,240 Q180,260 240,240 Q300,220 360,240 Q420,260 480,240 Q540,220 600,240" />
    </path>

    <!-- Wave 9 -->
    <path
        d="M0,270 Q43,250 86,270 Q129,290 172,270 Q215,250 258,270 Q301,290 344,270 Q387,250 430,270 Q473,290 516,270 Q559,250 600,270"
        fill="none"
        stroke="white"
        stroke-width="1.8">
        <animate attributeName="d"
            dur="25s"
            repeatCount="indefinite"
            values="M0,270 Q43,250 86,270 Q129,290 172,270 Q215,250 258,270 Q301,290 344,270 Q387,250 430,270 Q473,290 516,270 Q559,250 600,270;
                    M0,270 Q43,290 86,270 Q129,250 172,270 Q215,290 258,270 Q301,250 344,270 Q387,290 430,270 Q473,250 516,270 Q559,290 600,270;
                    M0,270 Q43,250 86,270 Q129,290 172,270 Q215,250 258,270 Q301,290 344,270 Q387,250 430,270 Q473,290 516,270 Q559,250 600,270" />
    </path>

    <!-- Wave 10 (Bottom) -->
    <path
        d="M0,300 Q50,280 100,300 Q150,320 200,300 Q250,280 300,300 Q350,320 400,300 Q450,280 500,300 Q550,320 600,300"
        fill="none"
        stroke="white"
        stroke-width="2">
        <animate attributeName="d"
            dur="27s"
            repeatCount="indefinite"
            values="M0,300 Q50,280 100,300 Q150,320 200,300 Q250,280 300,300 Q350,320 400,300 Q450,280 500,300 Q550,320 600,300;
                    M0,300 Q50,320 100,300 Q150,280 200,300 Q250,320 300,300 Q350,280 400,300 Q450,320 500,300 Q550,280 600,300;
                    M0,300 Q50,280 100,300 Q150,320 200,300 Q250,280 300,300 Q350,320 400,300 Q450,280 500,300 Q550,320 600,300" />
    </path>
</svg>