<svg xmlns="http://www.w3.org/2000/svg" viewBox="0 0 980 105">
  <path d="M0,10 Q61.25,5 122.5,10 Q183.75,15 245,10 Q306.25,5 367.5,10 Q428.75,15 490,10 Q551.25,5 612.5,10 Q673.75,15 735,10 Q796.25,5 857.5,10 Q918.75,15 980,10" 
        fill="none" 
        stroke="white" 
        stroke-width="0.5">
    <animate attributeName="d" 
             dur="20s" 
             repeatCount="indefinite" 
             values="M0,10 Q61.25,5 122.5,10 Q183.75,15 245,10 Q306.25,5 367.5,10 Q428.75,15 490,10 Q551.25,5 612.5,10 Q673.75,15 735,10 Q796.25,5 857.5,10 Q918.75,15 980,10;
                    M0,10 Q61.25,15 122.5,10 Q183.75,5 245,10 Q306.25,15 367.5,10 Q428.75,5 490,10 Q551.25,15 612.5,10 Q673.75,5 735,10 Q796.25,15 857.5,10 Q918.75,5 980,10;
                    M0,10 Q61.25,5 122.5,10 Q183.75,15 245,10 Q306.25,5 367.5,10 Q428.75,15 490,10 Q551.25,5 612.5,10 Q673.75,15 735,10 Q796.25,5 857.5,10 Q918.75,15 980,10" />
  </path>
  
  <path d="M0,20 Q70,15 140,20 Q210,25 280,20 Q350,15 420,20 Q490,25 560,20 Q630,15 700,20 Q770,25 840,20 Q910,15 980,20" 
        fill="none" 
        stroke="white" 
        stroke-width="0.5">
    <animate attributeName="d" 
             dur="22s" 
             repeatCount="indefinite" 
             values="M0,20 Q70,15 140,20 Q210,25 280,20 Q350,15 420,20 Q490,25 560,20 Q630,15 700,20 Q770,25 840,20 Q910,15 980,20;
                    M0,20 Q70,25 140,20 Q210,15 280,20 Q350,25 420,20 Q490,15 560,20 Q630,25 700,20 Q770,15 840,20 Q910,25 980,20;
                    M0,20 Q70,15 140,20 Q210,25 280,20 Q350,15 420,20 Q490,25 560,20 Q630,15 700,20 Q770,25 840,20 Q910,15 980,20" />
  </path>
  
  <path d="M0,30 Q65,25 130,30 Q195,35 260,30 Q325,25 390,30 Q455,35 520,30 Q585,25 650,30 Q715,35 780,30 Q845,25 910,30 Q975,35 980,30" 
        fill="none" 
        stroke="white" 
        stroke-width="0.6">
    <animate attributeName="d" 
             dur="19s" 
             repeatCount="indefinite" 
             values="M0,30 Q65,25 130,30 Q195,35 260,30 Q325,25 390,30 Q455,35 520,30 Q585,25 650,30 Q715,35 780,30 Q845,25 910,30 Q975,35 980,30;
                    M0,30 Q65,35 130,30 Q195,25 260,30 Q325,35 390,30 Q455,25 520,30 Q585,35 650,30 Q715,25 780,30 Q845,35 910,30 Q975,25 980,30;
                    M0,30 Q65,25 130,30 Q195,35 260,30 Q325,25 390,30 Q455,35 520,30 Q585,25 650,30 Q715,35 780,30 Q845,25 910,30 Q975,35 980,30" />
  </path>
  
  <path d="M0,40 Q98,35 196,40 Q294,45 392,40 Q490,35 588,40 Q686,45 784,40 Q882,35 980,40" 
        fill="none" 
        stroke="white" 
        stroke-width="0.7">
    <animate attributeName="d" 
             dur="24s" 
             repeatCount="indefinite" 
             values="M0,40 Q98,35 196,40 Q294,45 392,40 Q490,35 588,40 Q686,45 784,40 Q882,35 980,40;
                    M0,40 Q98,45 196,40 Q294,35 392,40 Q490,45 588,40 Q686,35 784,40 Q882,45 980,40;
                    M0,40 Q98,35 196,40 Q294,45 392,40 Q490,35 588,40 Q686,45 784,40 Q882,35 980,40" />
  </path>
  
  <path d="M0,50 Q70,45 140,50 Q210,55 280,50 Q350,45 420,50 Q490,55 560,50 Q630,45 700,50 Q770,55 840,50 Q910,45 980,50" 
        fill="none" 
        stroke="white" 
        stroke-width="0.9">
    <animate attributeName="d" 
             dur="26s" 
             repeatCount="indefinite" 
             values="M0,50 Q70,45 140,50 Q210,55 280,50 Q350,45 420,50 Q490,55 560,50 Q630,45 700,50 Q770,55 840,50 Q910,45 980,50;
                    M0,50 Q70,55 140,50 Q210,45 280,50 Q350,55 420,50 Q490,45 560,50 Q630,55 700,50 Q770,45 840,50 Q910,55 980,50;
                    M0,50 Q70,45 140,50 Q210,55 280,50 Q350,45 420,50 Q490,55 560,50 Q630,45 700,50 Q770,55 840,50 Q910,45 980,50" />
  </path>
  
  <path d="M0,60 Q81.7,55 163.3,60 Q245,65 326.7,60 Q408.3,55 490,60 Q571.7,65 653.3,60 Q735,55 816.7,60 Q898.3,65 980,60" 
        fill="none" 
        stroke="white" 
        stroke-width="1.1">
    <animate attributeName="d" 
             dur="21s" 
             repeatCount="indefinite" 
             values="M0,60 Q81.7,55 163.3,60 Q245,65 326.7,60 Q408.3,55 490,60 Q571.7,65 653.3,60 Q735,55 816.7,60 Q898.3,65 980,60;
                    M0,60 Q81.7,65 163.3,60 Q245,55 326.7,60 Q408.3,65 490,60 Q571.7,55 653.3,60 Q735,65 816.7,60 Q898.3,55 980,60;
                    M0,60 Q81.7,55 163.3,60 Q245,65 326.7,60 Q408.3,55 490,60 Q571.7,65 653.3,60 Q735,55 816.7,60 Q898.3,65 980,60" />
  </path>
  
  <path d="M0,70 Q61.25,65 122.5,70 Q183.75,75 245,70 Q306.25,65 367.5,70 Q428.75,75 490,70 Q551.25,65 612.5,70 Q673.75,75 735,70 Q796.25,65 857.5,70 Q918.75,75 980,70" 
        fill="none" 
        stroke="white" 
        stroke-width="1.3">
    <animate attributeName="d" 
             dur="18s" 
             repeatCount="indefinite" 
             values="M0,70 Q61.25,65 122.5,70 Q183.75,75 245,70 Q306.25,65 367.5,70 Q428.75,75 490,70 Q551.25,65 612.5,70 Q673.75,75 735,70 Q796.25,65 857.5,70 Q918.75,75 980,70;
                    M0,70 Q61.25,75 122.5,70 Q183.75,65 245,70 Q306.25,75 367.5,70 Q428.75,65 490,70 Q551.25,75 612.5,70 Q673.75,65 735,70 Q796.25,75 857.5,70 Q918.75,65 980,70;
                    M0,70 Q61.25,65 122.5,70 Q183.75,75 245,70 Q306.25,65 367.5,70 Q428.75,75 490,70 Q551.25,65 612.5,70 Q673.75,75 735,70 Q796.25,65 857.5,70 Q918.75,75 980,70" />
  </path>
  
  <path d="M0,80 Q98,75 196,80 Q294,85 392,80 Q490,75 588,80 Q686,85 784,80 Q882,75 980,80" 
        fill="none" 
        stroke="white" 
        stroke-width="1.5">
    <animate attributeName="d" 
             dur="23s" 
             repeatCount="indefinite" 
             values="M0,80 Q98,75 196,80 Q294,85 392,80 Q490,75 588,80 Q686,85 784,80 Q882,75 980,80;
                    M0,80 Q98,85 196,80 Q294,75 392,80 Q490,85 588,80 Q686,75 784,80 Q882,85 980,80;
                    M0,80 Q98,75 196,80 Q294,85 392,80 Q490,75 588,80 Q686,85 784,80 Q882,75 980,80" />
  </path>
  
  <path d="M0,90 Q70,85 140,90 Q210,95 280,90 Q350,85 420,90 Q490,95 560,90 Q630,85 700,90 Q770,95 840,90 Q910,85 980,90" 
        fill="none" 
        stroke="white" 
        stroke-width="1.8">
    <animate attributeName="d" 
             dur="25s" 
             repeatCount="indefinite" 
             values="M0,90 Q70,85 140,90 Q210,95 280,90 Q350,85 420,90 Q490,95 560,90 Q630,85 700,90 Q770,95 840,90 Q910,85 980,90;
                    M0,90 Q70,95 140,90 Q210,85 280,90 Q350,95 420,90 Q490,85 560,90 Q630,95 700,90 Q770,85 840,90 Q910,95 980,90;
                    M0,90 Q70,85 140,90 Q210,95 280,90 Q350,85 420,90 Q490,95 560,90 Q630,85 700,90 Q770,95 840,90 Q910,85 980,90" />
  </path>
  
  <path d="M0,100 Q81.7,95 163.3,100 Q245,105 326.7,100 Q408.3,95 490,100 Q571.7,105 653.3,100 Q735,95 816.7,100 Q898.3,105 980,100" 
        fill="none" 
        stroke="white" 
        stroke-width="2">
    <animate attributeName="d" 
             dur="27s" 
             repeatCount="indefinite" 
             values="M0,100 Q81.7,95 163.3,100 Q245,105 326.7,100 Q408.3,95 490,100 Q571.7,105 653.3,100 Q735,95 816.7,100 Q898.3,105 980,100;
                    M0,100 Q81.7,105 163.3,100 Q245,95 326.7,100 Q408.3,105 490,100 Q571.7,95 653.3,100 Q735,105 816.7,100 Q898.3,95 980,100;
                    M0,100 Q81.7,95 163.3,100 Q245,105 326.7,100 Q408.3,95 490,100 Q571.7,105 653.3,100 Q735,95 816.7,100 Q898.3,105 980,100" />
  </path>
</svg>